<?xml version="1.0" encoding="UTF-8" standalone="no"?>
<!DOCTYPE svg PUBLIC "-//W3C//DTD SVG 1.1//EN"
 "http://www.w3.org/Graphics/SVG/1.1/DTD/svg11.dtd">
<!-- Generated by graphviz version 2.38.0 (20140413.2041)
 -->
<!-- Title: R Pages: 1 -->
<svg width="782pt" height="110pt"
 viewBox="0.00 0.00 782.00 110.00" xmlns="http://www.w3.org/2000/svg" xmlns:xlink="http://www.w3.org/1999/xlink">
<g id="graph0" class="graph" transform="scale(1 1) rotate(0) translate(4 106)">
<title>R</title>
<polygon fill="white" stroke="none" points="-4,4 -4,-106 778,-106 778,4 -4,4"/>
<!-- file0 -->
<g id="node1" class="node"><title>file0</title>
<polygon fill="none" stroke="black" points="74,-90 0,-90 0,-54 74,-54 74,-90"/>
<text text-anchor="middle" x="37" y="-68.3" font-family="Courier,monospace" font-size="14.00">file.j0</text>
</g>
<!-- source0 -->
<g id="node4" class="node"><title>source0</title>
<polygon fill="none" stroke="black" points="267,-90 168,-90 168,-54 267,-54 267,-90"/>
<text text-anchor="middle" x="217.5" y="-68.3" font-family="Courier,monospace" font-size="14.00">source0.ml</text>
</g>
<!-- file0&#45;&gt;source0 -->
<g id="edge2" class="edge"><title>file0&#45;&gt;source0</title>
<path fill="none" stroke="black" d="M74.1221,-72C98.06,-72 130.015,-72 157.586,-72"/>
<polygon fill="black" stroke="black" points="157.912,-75.5001 167.912,-72 157.912,-68.5001 157.912,-75.5001"/>
<text text-anchor="middle" x="121" y="-90.8" font-family="Courier,monospace" font-size="14.00">parser0</text>
<text text-anchor="middle" x="121" y="-75.8" font-family="Courier,monospace" font-size="14.00">lexer0</text>
</g>
<!-- file -->
<g id="node2" class="node"><title>file</title>
<polygon fill="none" stroke="black" points="250.5,-36 184.5,-36 184.5,-0 250.5,-0 250.5,-36"/>
<text text-anchor="middle" x="217.5" y="-14.3" font-family="Courier,monospace" font-size="14.00">file.j</text>
</g>
<!-- source -->
<g id="node5" class="node"><title>source</title>
<polygon fill="none" stroke="black" points="469,-62 378,-62 378,-26 469,-26 469,-62"/>
<text text-anchor="middle" x="423.5" y="-40.3" font-family="Courier,monospace" font-size="14.00">source.ml</text>
</g>
<!-- file&#45;&gt;source -->
<g id="edge1" class="edge"><title>file&#45;&gt;source</title>
<path fill="none" stroke="black" d="M250.591,-14.86C279.494,-12.8252 322.996,-11.738 360,-19 364.698,-19.922 369.493,-21.1892 374.234,-22.6675"/>
<polygon fill="black" stroke="black" points="373.246,-26.0284 383.84,-25.9553 375.512,-19.4056 373.246,-26.0284"/>
<text text-anchor="middle" x="322.5" y="-37.8" font-family="Courier,monospace" font-size="14.00">parser</text>
<text text-anchor="middle" x="322.5" y="-22.8" font-family="Courier,monospace" font-size="14.00">lexer</text>
</g>
<!-- fileml -->
<g id="node3" class="node"><title>fileml</title>
<polygon fill="none" stroke="black" points="774,-62 700,-62 700,-26 774,-26 774,-62"/>
<text text-anchor="middle" x="737" y="-40.3" font-family="Courier,monospace" font-size="14.00">file.ml</text>
</g>
<!-- source0&#45;&gt;source -->
<g id="edge3" class="edge"><title>source0&#45;&gt;source</title>
<path fill="none" stroke="black" d="M267.104,-65.3289C297.28,-61.1871 336.139,-55.8535 367.449,-51.556"/>
<polygon fill="black" stroke="black" points="368.323,-54.9689 377.754,-50.1415 367.371,-48.0339 368.323,-54.9689"/>
<text text-anchor="middle" x="322.5" y="-66.8" font-family="Courier,monospace" font-size="14.00">typeinfer</text>
</g>
<!-- source&#45;&gt;source -->
<g id="edge4" class="edge"><title>source&#45;&gt;source</title>
<path fill="none" stroke="black" d="M406.133,-62.1527C403.461,-71.5391 409.25,-80 423.5,-80 432.184,-80 437.725,-76.8581 440.125,-72.2796"/>
<polygon fill="black" stroke="black" points="443.627,-72.3818 440.867,-62.1527 436.646,-71.8702 443.627,-72.3818"/>
<text text-anchor="middle" x="423.5" y="-83.8" font-family="Courier,monospace" font-size="14.00">typechecker</text>
</g>
<!-- target -->
<g id="node6" class="node"><title>target</title>
<polygon fill="none" stroke="black" points="663,-62 572,-62 572,-26 663,-26 663,-62"/>
<text text-anchor="middle" x="617.5" y="-40.3" font-family="Courier,monospace" font-size="14.00">target.ml</text>
</g>
<!-- source&#45;&gt;target -->
<g id="edge5" class="edge"><title>source&#45;&gt;target</title>
<path fill="none" stroke="black" d="M469.031,-44C496.679,-44 532.412,-44 561.78,-44"/>
<polygon fill="black" stroke="black" points="561.878,-47.5001 571.878,-44 561.878,-40.5001 561.878,-47.5001"/>
<text text-anchor="middle" x="520.5" y="-47.8" font-family="Courier,monospace" font-size="14.00">compiler</text>
</g>
<!-- target&#45;&gt;fileml -->
<g id="edge7" class="edge"><title>target&#45;&gt;fileml</title>
<path fill="none" stroke="black" d="M663.257,-44C671.927,-44 681.029,-44 689.746,-44"/>
<polygon fill="black" stroke="black" points="689.754,-47.5001 699.754,-44 689.754,-40.5001 689.754,-47.5001"/>
</g>
<!-- target&#45;&gt;target -->
<g id="edge6" class="edge"><title>target&#45;&gt;target</title>
<path fill="none" stroke="black" d="M605.922,-62.1527C604.141,-71.5391 608,-80 617.5,-80 623.289,-80 626.984,-76.8581 628.583,-72.2796"/>
<polygon fill="black" stroke="black" points="632.086,-72.3116 629.078,-62.1527 625.094,-71.97 632.086,-72.3116"/>
<text text-anchor="middle" x="617.5" y="-83.8" font-family="Courier,monospace" font-size="14.00">simplifier</text>
</g>
</g>
</svg>
